<svg width="1105" height="1371" viewBox="0 0 1105 1371" fill="none" xmlns="http://www.w3.org/2000/svg">
<path d="M172.314 1026.13L1.31522 1342.5C-3.56742 1352.95 6.16376 1364.42 13.817 1355.79L177.018 1206.31C181.303 1201.47 188.978 1201.91 192.688 1207.2L301.349 1362.08C308.83 1372.74 324.345 1373.52 332.858 1363.66L718.633 916.927C722.868 912.024 721.393 904.45 715.628 901.493L563.451 823.459C558.857 821.103 553.225 822.631 550.453 826.986L333.367 1167.96C329.624 1173.84 321.165 1174.18 316.958 1168.62L206.382 1022.53C197.292 1010.52 178.689 1012.49 172.314 1026.13Z" fill="#EDEFF3"/>
<path d="M392.486 602.217C415.775 580.428 427.274 548.836 423.44 517.173L363.538 22.4662C360.993 1.44455 388.586 -8.59849 400.148 9.14122L672.252 426.613C689.667 453.332 718.783 470.142 750.63 471.863L1085.53 489.968C1103.33 490.931 1111.07 512.951 1097.79 524.842L852.202 744.619C827.662 766.58 815.508 799.215 819.704 831.879L885.201 1341.72C887.919 1362.88 860.049 1373.02 848.53 1355.07L570.985 922.405C553.204 894.686 522.916 877.499 490.001 876.45L160.604 865.948C142.781 865.38 134.556 843.537 147.577 831.354L392.486 602.217Z" fill="#EDEFF3"/>
</svg>
