<svg width="61" height="56" viewBox="0 0 61 56" fill="none" xmlns="http://www.w3.org/2000/svg">
<path d="M56.0423 55.2732C57.2977 56.3544 59.1919 56.2132 60.2732 54.9577C61.3544 53.7023 61.2132 51.8081 59.9577 50.7268L58 53L56.0423 55.2732ZM44.9048 24.0526H41.9048C41.9048 34.0363 33.8537 42.1053 23.9524 42.1053V45.1053V48.1053C37.1944 48.1053 47.9048 37.323 47.9048 24.0526H44.9048ZM23.9524 45.1053V42.1053C14.051 42.1053 6 34.0363 6 24.0526H3H0C0 37.323 10.7104 48.1053 23.9524 48.1053V45.1053ZM3 24.0526H6C6 14.0689 14.051 6 23.9524 6V3V0C10.7104 0 0 10.7822 0 24.0526H3ZM23.9524 3V6C33.8537 6 41.9048 14.0689 41.9048 24.0526H44.9048H47.9048C47.9048 10.7822 37.1944 0 23.9524 0V3ZM39.6667 37.2105L37.7089 39.4837L56.0423 55.2732L58 53L59.9577 50.7268L41.6244 34.9374L39.6667 37.2105Z" fill="#A19AB2"/>
</svg>
